<?xml version="1.0" encoding="iso-8859-1"?>
<!-- Generator: Adobe Illustrator 18.0.0, SVG Export Plug-In . SVG Version: 6.00 Build 0)  -->
<!DOCTYPE svg PUBLIC "-//W3C//DTD SVG 1.1//EN" "http://www.w3.org/Graphics/SVG/1.1/DTD/svg11.dtd">
<svg version="1.1" id="Capa_1" xmlns="http://www.w3.org/2000/svg" xmlns:xlink="http://www.w3.org/1999/xlink" x="0px" y="0px"
	 viewBox="0 0 297.5 297.5" style="enable-background:new 0 0 297.5 297.5;" xml:space="preserve">
<g>
	<g id="XMLID_49_">
		<g>
			<path style="fill:#A5C63B;" d="M148.75,124.7c13.27,0,24.06,10.79,24.06,24.05s-10.79,24.05-24.06,24.05
				c-13.26,0-24.05-10.79-24.05-24.05S135.49,124.7,148.75,124.7z"/>
			<path style="fill:#16A085;" d="M276.34,120.24v57.02c-14.68,3.8-26.26,15.38-30.05,30.05H51.22
				c-3.79-14.67-15.37-26.25-30.05-30.05v-57.02c14.68-3.8,26.26-15.38,30.05-30.05h195.07
				C250.08,104.86,261.66,116.44,276.34,120.24z M235.03,148.75c0-4.76-3.86-8.63-8.63-8.63c-4.76,0-8.63,3.87-8.63,8.63
				s3.87,8.63,8.63,8.63C231.17,157.38,235.03,153.51,235.03,148.75z M193.72,148.75c0-24.8-20.17-44.97-44.97-44.97
				c-24.79,0-44.97,20.17-44.97,44.97s20.18,44.97,44.97,44.97C173.55,193.72,193.72,173.55,193.72,148.75z M79.73,148.75
				c0-4.76-3.86-8.63-8.63-8.63c-4.76,0-8.62,3.87-8.62,8.63s3.86,8.63,8.62,8.63C75.87,157.38,79.73,153.51,79.73,148.75z"/>
			<path d="M297.25,79.73v138.04c0,5.78-4.68,10.46-10.45,10.46H10.71c-5.77,0-10.46-4.68-10.46-10.46V79.73
				c0-5.78,4.69-10.46,10.46-10.46H286.8C292.57,69.27,297.25,73.95,297.25,79.73z M276.34,207.31v-14.63
				c-6.6,2.75-11.88,8.04-14.64,14.63H276.34z M276.34,177.26v-57.02c-14.68-3.8-26.26-15.38-30.05-30.05H51.22
				c-3.79,14.67-15.37,26.25-30.05,30.05v57.02c14.68,3.8,26.26,15.38,30.05,30.05h195.07
				C250.08,192.64,261.66,181.06,276.34,177.26z M276.34,104.82V90.19H261.7C264.46,96.78,269.74,102.07,276.34,104.82z
				 M35.81,90.19H21.17v14.63C27.76,102.07,33.05,96.78,35.81,90.19z M21.17,207.31h14.64c-2.76-6.59-8.05-11.88-14.64-14.63V207.31
				z"/>
			<path d="M226.4,140.12c4.77,0,8.63,3.87,8.63,8.63s-3.86,8.63-8.63,8.63c-4.76,0-8.63-3.87-8.63-8.63S221.64,140.12,226.4,140.12
				z"/>
			<path d="M148.75,103.78c24.8,0,44.97,20.17,44.97,44.97s-20.17,44.97-44.97,44.97c-24.79,0-44.97-20.17-44.97-44.97
				S123.96,103.78,148.75,103.78z M172.81,148.75c0-13.26-10.79-24.05-24.06-24.05c-13.26,0-24.05,10.79-24.05,24.05
				s10.79,24.05,24.05,24.05C162.02,172.8,172.81,162.01,172.81,148.75z"/>
			<path d="M71.1,140.12c4.77,0,8.63,3.87,8.63,8.63s-3.86,8.63-8.63,8.63c-4.76,0-8.62-3.87-8.62-8.63S66.34,140.12,71.1,140.12z"
				/>
		</g>
		<g>
		</g>
	</g>
</g>
<g>
</g>
<g>
</g>
<g>
</g>
<g>
</g>
<g>
</g>
<g>
</g>
<g>
</g>
<g>
</g>
<g>
</g>
<g>
</g>
<g>
</g>
<g>
</g>
<g>
</g>
<g>
</g>
<g>
</g>
</svg>
