<?xml version="1.0" encoding="iso-8859-1"?>
<!-- Generator: Adobe Illustrator 16.0.0, SVG Export Plug-In . SVG Version: 6.00 Build 0)  -->
<!DOCTYPE svg PUBLIC "-//W3C//DTD SVG 1.1//EN" "http://www.w3.org/Graphics/SVG/1.1/DTD/svg11.dtd">
<svg version="1.1" id="Capa_1" xmlns="http://www.w3.org/2000/svg" xmlns:xlink="http://www.w3.org/1999/xlink" x="0px" y="0px"
	 width="394.299px" height="394.299px" viewBox="0 0 394.299 394.299" style="enable-background:new 0 0 394.299 394.299;"
	 xml:space="preserve">
<g>
	<path d="M345.738,56.108h-80.183V29.735C265.556,13.343,252.213,0,235.82,0h-77.354c-16.393,0-29.724,13.343-29.724,29.735v26.373
		H48.555c-16.394,0-29.724,13.343-29.724,29.736v38.671c0,6.794,5.503,12.298,12.298,12.298H63.41v227.762
		c0,16.393,13.331,29.724,29.724,29.724h212.63c16.394,0,29.736-13.331,29.736-29.724V136.813h27.67
		c6.785,0,12.298-5.503,12.298-12.298V85.844C375.468,69.451,362.131,56.108,345.738,56.108z M153.338,29.735
		c0-2.834,2.306-5.14,5.128-5.14h77.354c2.834,0,5.14,2.306,5.14,5.14v26.373h-87.622V29.735z"/>
</g>
<g>
</g>
<g>
</g>
<g>
</g>
<g>
</g>
<g>
</g>
<g>
</g>
<g>
</g>
<g>
</g>
<g>
</g>
<g>
</g>
<g>
</g>
<g>
</g>
<g>
</g>
<g>
</g>
<g>
</g>
</svg>
