<?xml version="1.0" encoding="UTF-8" standalone="no"?> 
<svg xmlns="http://www.w3.org/2000/svg" viewBox="0 0 64 64"><g id="Layer_35" 
data-name="Layer 35"><path d="M60,24.44H58.82A18.86,18.86,0,0,0,41,6.62V4.16a1,1,0,1,0-2,0V6.62A18.86,18.86,0,0,0,21.18,24.44H20a1,1,0,0,0-1,1,6.69,6.69,0,0,0,6.68,6.68H54.32A6.69,6.69,0,0,0,61,25.44,1,1,0,0,0,60,24.44Zm-32.19-7.5a14.92,14.92,0,0,1,9.78-6.17,1,1,0,0,1,.32,2,13,13,0,0,0-8.46,5.34A1,1,0,0,1,27.81,16.94ZM54.32,30.12H25.68a4.69,4.69,0,0,1-4.57-3.68H58.89A4.69,4.69,0,0,1,54.32,30.12Z"/>
<path d="M60.67,44.84a4.48,4.48,0,0,0-5.85-2.46L42.09,46.86a4.29,4.29,0,0,0-4.21-5h-7.2a2.24,2.24,0,0,1-1.07-.27l-6.9-3.65a4.32,4.32,0,0,0-2-.49h-8.9V33.86a1,1,0,0,0-1-1H4a1,1,0,0,0-1,1v24.5a1,1,0,0,0,1,1h6.81a1,1,0,0,0,1-1V56.07c2.78-.12,5.76.08,8.22,1.49L28.35,60a8.46,8.46,0,0,0,7.8,0l22.43-9.59A4.45,4.45,0,0,0,60.67,44.84ZM9.81,57.36H5V34.86H9.81Z"/></g></svg>