<?xml version="1.0" encoding="iso-8859-1"?>
<!-- Generator: Adobe Illustrator 19.0.0, SVG Export Plug-In . SVG Version: 6.00 Build 0)  -->
<svg version="1.1" id="Layer_1" xmlns="http://www.w3.org/2000/svg" xmlns:xlink="http://www.w3.org/1999/xlink" x="0px" y="0px"
	 viewBox="0 0 194.576 194.576" style="enable-background:new 0 0 194.576 194.576;" xml:space="preserve">
<g>
	<g>
		<g>
			<path d="M97.288,0C43.642,0,0,43.642,0,97.288c0,53.646,43.642,97.288,97.288,97.288s97.288-43.642,97.288-97.288
				C194.576,43.642,150.934,0,97.288,0z M46.284,171.801C22.552,155.505,6.949,128.189,6.949,97.288
				c0-49.813,40.526-90.339,90.339-90.339c21.909,0,42.017,7.845,57.675,20.867l-4.86,4.994
				c-14.392-11.811-32.789-18.912-52.816-18.912c-45.98,0-83.39,37.409-83.39,83.39c0,28.954,14.841,54.499,37.308,69.455
				L46.284,171.801z M173.729,97.288c0,42.15-34.291,76.441-76.441,76.441c-42.15,0-76.441-34.291-76.441-76.441
				c0-42.15,34.291-76.441,76.441-76.441C139.438,20.847,173.729,55.138,173.729,97.288z M97.288,187.627
				c-16.373,0-31.727-4.4-44.984-12.047l4.999-5.137c11.879,6.519,25.505,10.235,39.985,10.235c45.98,0,83.39-37.409,83.39-83.39
				c0-23.458-9.751-44.67-25.395-59.836l4.843-4.977c16.942,16.43,27.501,39.406,27.501,64.813
				C187.627,147.101,147.101,187.627,97.288,187.627z"/>
			<path d="M66.017,66.013v20.851h-6.949v6.949h6.949v6.949h-6.949v6.949h6.949v20.851c0,13.41,9.041,24.319,20.154,24.319h22.233
				c11.114,0,20.155-10.908,20.155-24.318c0-1.919-1.556-3.475-3.475-3.475c-1.919,0-3.475,1.556-3.475,3.475
				c0,9.577-5.924,17.369-13.206,17.369H86.171c-7.282,0-13.204-7.792-13.204-17.369v-20.851h27.97v-6.949h-27.97v-6.949h27.97
				v-6.949h-27.97V66.013c0-9.577,5.923-17.369,13.204-17.369h22.233c7.282,0,13.206,7.792,13.206,17.369
				c0,1.919,1.556,3.475,3.475,3.475s3.475-1.556,3.475-3.475c0-13.41-9.041-24.319-20.155-24.319H86.171
				C75.059,41.694,66.017,52.603,66.017,66.013z"/>
		</g>
	</g>
</g>
<g>
</g>
<g>
</g>
<g>
</g>
<g>
</g>
<g>
</g>
<g>
</g>
<g>
</g>
<g>
</g>
<g>
</g>
<g>
</g>
<g>
</g>
<g>
</g>
<g>
</g>
<g>
</g>
<g>
</g>
</svg>
