<?xml version="1.0" encoding="iso-8859-1"?>
<!-- Generator: Adobe Illustrator 19.0.0, SVG Export Plug-In . SVG Version: 6.00 Build 0)  -->
<svg version="1.1" id="Layer_1" xmlns="http://www.w3.org/2000/svg" xmlns:xlink="http://www.w3.org/1999/xlink" x="0px" y="0px"
	 viewBox="0 0 512 512" style="enable-background:new 0 0 512 512;" xml:space="preserve">
<g>
	<g>
		<path d="M415.162,96.838C372.649,54.323,316.123,30.91,256,30.91S139.351,54.323,96.838,96.838
			C54.323,139.351,30.91,195.877,30.91,256c0,61.372,24.252,118.724,68.288,161.49c3.107,3.018,8.068,2.942,11.081-0.161
			c3.016-3.105,2.942-8.067-0.161-11.081C69.147,366.457,46.584,313.099,46.584,256c0-115.473,93.944-209.416,209.416-209.416
			S465.416,140.527,465.416,256S371.473,465.416,256,465.416c-42.037,0-82.579-12.404-117.245-35.871
			c-3.583-2.424-8.455-1.487-10.883,2.097c-2.426,3.584-1.488,8.456,2.097,10.883c37.268,25.23,80.849,38.565,126.03,38.565
			c60.123,0,116.649-23.413,159.162-65.928C457.677,372.648,481.09,316.123,481.09,256S457.677,139.351,415.162,96.838z"/>
	</g>
</g>
<g>
	<g>
		<path d="M340.452,159.532H222.911c-4.329,0-7.837,3.508-7.837,7.837c0,4.329,3.508,7.837,7.837,7.837h113.883v161.589H175.205
			V175.205h12.006c4.329,0,7.837-3.508,7.837-7.837c0-4.329-3.508-7.837-7.837-7.837h-15.663c-6.626,0-12.016,5.391-12.016,12.016
			v168.904c0,6.626,5.391,12.016,12.016,12.016h168.904c6.626,0,12.016-5.391,12.016-12.016V171.548
			C352.468,164.923,347.078,159.532,340.452,159.532z"/>
	</g>
</g>
<g>
	<g>
		<path d="M484.314,140.086c-17.52-34.44-43.11-64.999-74.009-88.373c-3.449-2.61-8.365-1.93-10.978,1.522
			c-2.611,3.451-1.93,8.367,1.522,10.978c60.676,45.901,95.477,115.805,95.477,191.787c0,132.516-107.81,240.327-240.327,240.327
			S15.673,388.516,15.673,256S123.484,15.673,256,15.673c40.683,0,80.878,10.349,116.241,29.93c3.788,2.098,8.556,0.725,10.652-3.06
			c2.096-3.787,0.726-8.556-3.06-10.652C342.153,11.028,299.333,0,256,0C187.62,0,123.332,26.628,74.981,74.981
			C26.629,123.333,0,187.62,0,256s26.628,132.668,74.981,181.019C123.333,485.371,187.62,512,256,512s132.668-26.628,181.019-74.981
			C485.371,388.667,512,324.38,512,256C512,215.201,502.685,176.202,484.314,140.086z"/>
	</g>
</g>
<g>
	<g>
		<path d="M317.351,184.722H194.649c-5.473,0-9.927,4.453-9.927,9.927v122.702c0,5.473,4.453,9.927,9.927,9.927h122.702
			c5.473,0,9.927-4.453,9.927-9.927V194.649C327.278,189.176,322.824,184.722,317.351,184.722z M311.604,311.604H200.396V200.396
			h111.208V311.604z"/>
	</g>
</g>
<g>
</g>
<g>
</g>
<g>
</g>
<g>
</g>
<g>
</g>
<g>
</g>
<g>
</g>
<g>
</g>
<g>
</g>
<g>
</g>
<g>
</g>
<g>
</g>
<g>
</g>
<g>
</g>
<g>
</g>
</svg>
